<?xml version="1.0" standalone="no"?>
<svg xmlns="http://www.w3.org/2000/svg" viewBox="0 0 100.688 116.264" width="100.688" height="116.264"><polygon fill="#5e24c3" points="100.688,29.066 100.688,87.198 50.344,116.264 0,87.198 0,29.066 50.344,0"></polygon><g fill="white" color="white" transform="translate(28.344 22.5) scale(0.0859375)"><svg width="512.0" height="512.0" x="0.0" y="0.0" viewBox="0 0 512 512"><title></title><g><path d="M50,326.9c0,12.8,10.7,23.1,23.6,23.1h364.9c12.8,0,23.6-10.3,23.6-23.1V306H50V326.9z"></path><path d="M263.2,179.2C263.2,179.2,263.2,179.2,263.2,179.2c0-4.5-3.7-8.2-8.2-8.2c-4.5,0-8.2,3.7-8.2,8.2s3.7,8.2,8.2,8.2   C259.6,187.4,263.2,183.7,263.2,179.2z"></path><path d="M255.1,116.1c-4.5,0-8.2,3.7-8.2,8.2c0,4.5,3.7,8.2,8.2,8.2c4.5,0,8.2-3.7,8.2-8.2c0,0,0,0,0,0   C263.2,119.8,259.6,116.1,255.1,116.1z"></path><path d="M255.1,227.7c-4.5,0-8.2,3.7-8.2,8.2c0,4.5,3.7,8.2,8.2,8.2c4.5,0,8.2-3.7,8.2-8.2C263.2,231.4,259.6,227.7,255.1,227.7z"></path><path d="M200.2,171c-4.5,0-8.2,3.7-8.2,8.2s3.7,8.2,8.2,8.2c4.5,0,8.2-3.7,8.2-8.2c0,0,0,0,0,0C208.4,174.6,204.7,171,200.2,171z"></path><path d="M200.2,132.5c4.5,0,8.2-3.7,8.2-8.2c0-4.5-3.7-8.2-8.2-8.2c-4.5,0-8.2,3.7-8.2,8.2c0,0,0,0,0,0   C192,128.8,195.7,132.5,200.2,132.5z"></path><path d="M200.2,227.7c-4.5,0-8.2,3.7-8.2,8.2c0,4.5,3.7,8.2,8.2,8.2c4.5,0,8.2-3.7,8.2-8.2c0,0,0,0,0,0   C208.4,231.4,204.7,227.7,200.2,227.7z"></path><path d="M438.4,66H73.6C60.7,66,50.2,76.4,50,89.2V294h412V89.2C461.8,76.4,451.3,66,438.4,66z M291.6,124.3   c0-11.1,9-20.2,20.2-20.2c11.2,0,20.2,9,20.2,20.2s-9,20.2-20.2,20.2S291.6,135.5,291.6,124.3C291.6,124.3,291.6,124.3,291.6,124.3   z M200.2,256.1c-11.2,0-20.2-9-20.2-20.2c0-11.2,9-20.2,20.2-20.2c11.2,0,20.2,9,20.2,20.2C220.4,247.1,211.3,256.1,200.2,256.1z    M275.2,235.9c0,11.2-9,20.2-20.1,20.3c-11.2,0-20.2-9-20.3-20.1c0-1.8,0.2-3.6,0.7-5.3L203.8,199c-11,2-21.5-5.2-23.6-16.2   c-0.2-1.2-0.3-2.4-0.3-3.7c0-8.7,6.1-16.1,13.1-18.9v-17c-7-2.8-13.1-10.2-13.1-18.9c0-11.1,9-20.2,20.2-20.2s20.2,9,20.2,20.2   c0,0,0,0,0,0c0.1,9.3-6.2,17.3-15.2,19.5v15.8c10.8,2.7,17.4,13.7,14.7,24.5c-0.8,3.4-2.5,6.4-4.9,8.9l27.4,27.3   c2.3-1.9,5-3.3,7.9-4v-17.7c-10.8-2.8-17.3-13.8-14.5-24.6c2.8-10.8,13.8-17.3,24.6-14.5c10.8,2.8,17.3,13.8,14.5,24.6   c-1.7,6.4-6.4,11.6-12.6,13.9V217C269.9,219.9,275.2,227.5,275.2,235.9L275.2,235.9z M319,198.1V217c7,2.8,13.1,10.2,13.1,18.9   c0,11.1-9,20.2-20.2,20.2c-11.1,0-20.2-9-20.2-20.2c0,0,0,0,0,0c-0.1-9.3,6.2-17.3,15.2-19.5v-17.7c-10.8-2.7-17.4-13.7-14.6-24.5   c0.3-1.3,0.8-2.6,1.4-3.9l-28.5-28.6c-9.7,5.7-22.1,2.5-27.8-7.1c-5.7-9.7-2.5-22.1,7.1-27.8c9.7-5.7,22.1-2.5,27.8,7.1   c3.4,5.8,3.8,12.9,0.9,18.9l28.6,28.8c3-1.7,6.4-2.6,9.9-2.6c11.2,0,20.2,9,20.3,20.2C332.1,187.8,326,195.3,319,198.1z"></path><path d="M311.8,132.5c4.5,0,8.2-3.7,8.2-8.2c0-4.5-3.7-8.2-8.2-8.2c-4.5,0-8.2,3.7-8.2,8.2c0,0,0,0,0,0   C303.6,128.8,307.3,132.5,311.8,132.5z"></path><path d="M311.8,171c-4.5,0-8.2,3.7-8.2,8.2s3.7,8.2,8.2,8.2s8.2-3.7,8.2-8.2c0,0,0,0,0,0C320,174.6,316.3,171,311.8,171z"></path><path d="M311.8,227.7c-4.5,0-8.2,3.7-8.2,8.2c0,4.5,3.7,8.2,8.2,8.2c4.5,0,8.2-3.7,8.2-8.2C320,231.4,316.3,227.7,311.8,227.7z"></path><path d="M351.2,434H318v-78H194v78h-27.9c-3.3,0-6,2.7-6,6s2.7,6,6,6h185c3.3,0,6-2.7,6-6S354.5,434,351.2,434z"></path></g></svg></g><path fill="white" fill-rule="nonzero" d="M0 19.26L0 0L15.57 0L15.57 4.62L6.19 4.62L6.19 7.92L14.25 7.92L14.25 12.35L6.19 12.35L6.19 19.26L0 19.26Z" transform="translate(42.56, 74.5)"></path></svg>